<svg width="66" height="66" viewBox="0 0 66 66" fill="none" xmlns="http://www.w3.org/2000/svg">
<g clip-path="url(#clip0_23_38)">
<path d="M63.7615 32.873H60.577V27.3685C60.577 27.1782 60.5395 26.9896 60.4666 26.8138C60.3937 26.6379 60.2868 26.4781 60.1521 26.3436C60.0174 26.209 59.8575 26.1024 59.6816 26.0297C59.5056 25.9569 59.3171 25.9196 59.1267 25.9199H50.5384C49.7087 22.0543 47.6519 18.5605 44.6745 15.9593C41.6972 13.3582 37.9589 11.7889 34.017 11.4857V9.77955H42.8016C43.1858 9.77955 43.5543 9.62692 43.826 9.35524C44.0977 9.08355 44.2503 8.71507 44.2503 8.33085V1.45035C44.2505 1.25983 44.2131 1.07113 44.1403 0.895069C44.0675 0.719007 43.9607 0.559035 43.826 0.424314C43.6913 0.289594 43.5313 0.18277 43.3552 0.10996C43.1792 0.03715 42.9905 -0.00021618 42.7999 9.40793e-07H32.5666C32.1824 9.40793e-07 31.8139 0.152631 31.5423 0.424315C31.2706 0.695999 31.1179 1.06448 31.1179 1.4487V11.4939C27.1935 11.8155 23.4768 13.392 20.5179 15.9901C17.559 18.5882 15.5152 22.0699 14.6889 25.9199H6.09734C5.71312 25.9199 5.34464 26.0725 5.07296 26.3442C4.80127 26.6158 4.64864 26.9843 4.64864 27.3685V32.873H1.46414C1.27376 32.8727 1.0852 32.91 0.909244 32.9828C0.733289 33.0555 0.573391 33.1621 0.438692 33.2967C0.303992 33.4312 0.197134 33.591 0.124227 33.7669C0.0513202 33.9427 0.0137938 34.1313 0.0137939 34.3217V64.5496C0.0137939 65.3515 0.663894 66 1.46249 66H63.7632C64.1474 66 64.5159 65.8474 64.7876 65.5757C65.0593 65.304 65.2119 64.9355 65.2119 64.5513V34.3233C65.2121 34.1329 65.1748 33.9444 65.1021 33.7684C65.0294 33.5924 64.9227 33.4325 64.7882 33.2978C64.6536 33.1631 64.4938 33.0563 64.318 32.9834C64.1421 32.9105 63.9536 32.8729 63.7632 32.873H63.7615ZM34.0153 5.0226V2.8974H41.3512V6.88215H34.0153V5.0226ZM32.6128 14.3286C39.6814 14.3286 45.8343 19.2077 47.5618 25.9199H17.6638C19.3897 19.2077 25.5426 14.3286 32.6128 14.3286ZM7.54604 28.8172H57.678V32.873H7.54604V28.8172V28.8172ZM35.8881 63.1026H29.3376V52.2423H35.8881V63.1026ZM62.3128 63.1026H44.9284V44.6061C44.9284 44.2217 44.7757 43.853 44.5039 43.5811C44.232 43.3093 43.8634 43.1566 43.4789 43.1566C43.0945 43.1566 42.7258 43.3093 42.4539 43.5811C42.1821 43.853 42.0294 44.2217 42.0294 44.6061V63.1026H38.7855V50.7936C38.7857 50.6032 38.7484 50.4147 38.6757 50.2387C38.603 50.0627 38.4963 49.9028 38.3618 49.7681C38.2272 49.6334 38.0674 49.5266 37.8916 49.4537C37.7157 49.3808 37.5272 49.3433 37.3368 49.3433H27.8872C27.6969 49.3433 27.5083 49.3808 27.3325 49.4537C27.1566 49.5266 26.9968 49.6334 26.8623 49.7681C26.7277 49.9028 26.621 50.0627 26.5483 50.2387C26.4756 50.4147 26.4383 50.6032 26.4385 50.7936V63.1026H23.1946V44.6061C23.1946 44.2219 23.042 43.8534 22.7703 43.5817C22.4986 43.31 22.1302 43.1574 21.7459 43.1574C21.3617 43.1574 20.9932 43.31 20.7216 43.5817C20.4499 43.8534 20.2972 44.2219 20.2972 44.6061V63.1026H2.91284V35.7704H62.3128V63.1026Z" fill="url(#paint0_linear_23_38)"/>
<path d="M16.2244 38.016H8.03549C7.84511 38.016 7.65659 38.0535 7.48072 38.1264C7.30485 38.1993 7.14507 38.3062 7.01052 38.4409C6.87598 38.5756 6.7693 38.7355 6.69659 38.9114C6.62389 39.0874 6.58658 39.276 6.58679 39.4663V45.6951C6.58679 46.4953 7.23524 47.1454 8.03549 47.1454H16.2228C16.4132 47.1454 16.6017 47.1079 16.7776 47.035C16.9534 46.9621 17.1132 46.8552 17.2478 46.7205C17.3823 46.5858 17.489 46.4259 17.5617 46.25C17.6344 46.074 17.6717 45.8855 17.6715 45.6951V39.468C17.6717 39.2776 17.6344 39.089 17.5617 38.9131C17.489 38.7371 17.3823 38.5772 17.2478 38.4425C17.1132 38.3078 16.9534 38.201 16.7776 38.1281C16.6017 38.0552 16.4132 38.0176 16.2228 38.0176L16.2244 38.016ZM14.7757 44.2464H9.48584V40.9134H14.7757V44.2464ZM16.2244 50.9404H8.03549C7.84525 50.9404 7.65686 50.9779 7.4811 51.0507C7.30533 51.1235 7.14563 51.2302 7.01111 51.3648C6.87658 51.4993 6.76987 51.659 6.69707 51.8347C6.62426 52.0105 6.58679 52.1989 6.58679 52.3891V58.6195C6.58679 59.4198 7.23524 60.0682 8.03549 60.0682H16.2228C16.607 60.0682 16.9755 59.9156 17.2472 59.6439C17.5189 59.3722 17.6715 59.0038 17.6715 58.6195V52.3875C17.6715 52.0033 17.5189 51.6348 17.2472 51.3631C16.9755 51.0914 16.607 50.9388 16.2228 50.9388L16.2244 50.9404ZM14.7757 57.1708H9.48584V53.8378H14.7757V57.1708ZM36.7059 38.016H28.5202C28.3299 38.016 28.1413 38.0535 27.9655 38.1264C27.7896 38.1993 27.6298 38.3062 27.4953 38.4409C27.3607 38.5756 27.2541 38.7355 27.1813 38.9114C27.1086 39.0874 27.0713 39.276 27.0715 39.4663V45.6951C27.0715 46.4953 27.72 47.1454 28.5202 47.1454H36.7059C36.8964 47.1457 37.0851 47.1083 37.2612 47.0355C37.4372 46.9627 37.5972 46.8558 37.7319 46.7211C37.8667 46.5864 37.9735 46.4264 38.0463 46.2504C38.1191 46.0743 38.1565 45.8856 38.1562 45.6951V39.468C38.1565 39.2775 38.1191 39.0888 38.0463 38.9127C37.9735 38.7366 37.8667 38.5767 37.7319 38.442C37.5972 38.3072 37.4372 38.2004 37.2612 38.1276C37.0851 38.0548 36.8964 38.0174 36.7059 38.0176V38.016ZM35.2572 44.2464H29.9689V40.9134H35.2572V44.2464ZM57.189 38.016H49.005C48.8146 38.016 48.6261 38.0535 48.4502 38.1264C48.2743 38.1993 48.1146 38.3062 47.98 38.4409C47.8455 38.5756 47.7388 38.7355 47.6661 38.9114C47.5934 39.0874 47.5561 39.276 47.5563 39.4663V45.6951C47.5563 46.4953 48.2047 47.1454 49.005 47.1454H57.1906C57.381 47.1454 57.5695 47.1079 57.7454 47.035C57.9213 46.9621 58.0811 46.8552 58.2156 46.7205C58.3502 46.5858 58.4568 46.4259 58.5295 46.25C58.6022 46.074 58.6396 45.8855 58.6393 45.6951V39.468C58.6396 39.2776 58.6022 39.089 58.5295 38.9131C58.4568 38.7371 58.3502 38.5772 58.2156 38.4425C58.0811 38.3078 57.9213 38.201 57.7454 38.1281C57.5695 38.0552 57.381 38.0176 57.1906 38.0176L57.189 38.016ZM55.7403 44.2464H50.452V40.9134H55.7403V44.2464ZM57.189 50.9404H49.005C48.6208 50.9404 48.2523 51.0931 47.9806 51.3648C47.7089 51.6364 47.5563 52.0049 47.5563 52.3891V58.6195C47.5563 59.4198 48.2047 60.0682 49.005 60.0682H57.1906C57.5749 60.0682 57.9433 59.9156 58.215 59.6439C58.4867 59.3722 58.6393 59.0038 58.6393 58.6195V52.3875C58.6393 52.0033 58.4867 51.6348 58.215 51.3631C57.9433 51.0914 57.5749 50.9388 57.1906 50.9388L57.189 50.9404ZM55.7403 57.1708H50.452V53.8378H55.7403V57.1708Z" fill="url(#paint1_linear_23_38)"/>
</g>
<defs>
<linearGradient id="paint0_linear_23_38" x1="0.0137935" y1="32.2221" x2="64.8181" y2="32.2221" gradientUnits="userSpaceOnUse">
<stop stop-color="#0F8F62"/>
<stop offset="1" stop-color="#27AE7A"/>
</linearGradient>
<linearGradient id="paint1_linear_23_38" x1="6.58679" y1="48.7822" x2="58.3249" y2="48.7822" gradientUnits="userSpaceOnUse">
<stop stop-color="#0F8F62"/>
<stop offset="1" stop-color="#27AE7A"/>
</linearGradient>
<clipPath id="clip0_23_38">
<rect width="66" height="66" fill="white"/>
</clipPath>
</defs>
</svg>
