<svg width="92" height="62" viewBox="0 0 92 62" fill="none" xmlns="http://www.w3.org/2000/svg">
<g clip-path="url(#clip0_23_35)">
<path d="M75.2376 45.2257C76.4987 43.2592 77.532 41.1748 78.3204 39.0071C81.5579 39.1225 84.7126 38.0434 87.0926 36.0065C89.4726 33.9696 90.8837 31.1412 91.0164 28.1416C88.667 28.0534 86.3399 28.5949 84.3142 29.7012C82.2884 30.8074 80.6499 32.4315 79.5951 34.3788C80.2588 30.9167 80.3068 27.3773 79.7372 23.9008C82.6767 23.0772 85.1745 21.2594 86.7347 18.8084C88.2949 16.3574 88.8035 13.4524 88.1594 10.67C85.8133 11.1388 83.6678 12.2366 81.99 13.8269C80.3123 15.4171 79.1763 17.4295 78.7236 19.6135C78.1955 17.9168 77.522 16.2618 76.7096 14.6644L75.9351 13.1872C76.6205 10.5627 76.2716 7.79773 74.9512 5.39059C73.6309 2.98345 71.426 1.09254 68.734 0.0587158C67.702 2.37503 67.5271 4.94292 68.2368 7.36108C68.9464 9.77924 70.5007 11.9114 72.6566 13.4244L73.9496 15.8889C75.0918 18.1289 75.9317 20.4908 76.4503 22.9212C75.3609 20.9886 73.6931 19.388 71.6469 18.3115C69.6007 17.2349 67.2628 16.728 64.9135 16.8514C65.0933 19.7266 66.4481 22.4303 68.7024 24.413C70.9567 26.3956 73.9412 27.5083 77.0492 27.5247C77.2329 31.7024 76.4533 35.8684 74.7625 39.7449C74.4398 37.2788 73.2517 34.9791 71.381 33.1997C69.5102 31.4203 67.0604 30.2596 64.4084 29.8962C63.972 32.6495 64.6439 35.4553 66.296 37.7792C67.9482 40.1031 70.4652 41.7826 73.3675 42.4977C72.4395 44.1336 71.3522 45.6874 70.1191 47.14C68.1813 49.4082 65.8968 51.4023 63.3378 53.0594C64.7413 50.5661 65.0946 47.6785 64.3293 44.9573C63.5639 42.2362 61.7344 39.8757 59.1961 38.3344C57.4739 40.772 56.8318 43.7309 57.4031 46.596C57.9744 49.461 59.7153 52.0118 62.2639 53.7182C60.1851 54.962 57.9571 55.9773 55.6249 56.7438C55.2422 56.8687 54.9288 57.1294 54.7536 57.4685C54.5784 57.8076 54.5558 58.1973 54.6907 58.5518C54.8255 58.9064 55.1069 59.1968 55.4728 59.3591C55.8387 59.5215 56.2593 59.5425 56.6419 59.4175C58.7123 58.735 60.7089 57.8736 62.6052 56.8445C64.3378 59.2508 66.9981 60.9519 70.0408 61.5989C73.0835 62.2459 76.278 61.7898 78.9695 60.3243C77.643 58.2363 75.6296 56.597 73.2244 55.6467C70.8192 54.6963 68.1487 54.4849 65.6044 55.0434C67.9665 53.446 70.1046 51.582 71.9691 49.4944C74.7393 50.753 77.9205 50.9953 80.8754 50.1727C83.8302 49.3501 86.3405 47.5233 87.9035 45.0583C85.9767 44.0127 83.778 43.4756 81.5453 43.5051C79.3127 43.5346 77.1314 44.1296 75.2376 45.2257V45.2257ZM35.3949 56.7438C33.0635 55.9781 30.8361 54.9638 28.7575 53.7213C31.3055 52.0144 33.0458 49.4635 33.6168 46.5986C34.1878 43.7337 33.5456 40.7751 31.8236 38.3375C29.2865 39.879 27.4579 42.239 26.6929 44.9594C25.9279 47.6799 26.281 50.5666 27.6836 53.0594C25.1247 51.4034 22.8403 49.4103 20.9024 47.1431C19.6687 45.6904 18.5813 44.1359 17.654 42.4993C20.5558 41.7835 23.0721 40.1038 24.7239 37.7801C26.3757 35.4563 27.0475 32.6508 26.6114 29.8978C23.9592 30.2615 21.5094 31.4225 19.6386 33.2022C17.7679 34.9818 16.5799 37.2817 16.2572 39.748C14.5652 35.8717 13.784 31.7058 13.9656 27.5278C17.073 27.5095 20.0564 26.3962 22.3102 24.414C24.5641 22.4317 25.9195 19.729 26.1012 16.8545C23.7509 16.7298 21.4117 17.2367 19.3648 18.3143C17.318 19.3919 15.6505 20.9943 14.5628 22.929C15.0813 20.5001 15.921 18.1395 17.0652 15.9028L18.3649 13.4244C20.5208 11.9114 22.075 9.77924 22.7847 7.36108C23.4944 4.94292 23.3195 2.37503 22.2874 0.0587158C19.5961 1.09309 17.3919 2.98423 16.0722 5.39132C14.7525 7.7984 14.4041 10.5631 15.0897 13.1872L14.3085 14.6752C13.4967 16.2693 12.8243 17.9212 12.2979 19.6151C11.8448 17.43 10.7079 15.4168 9.02884 13.8262C7.34979 12.2357 5.20281 11.138 2.85535 10.67C2.21175 13.4517 2.72035 16.356 4.28022 18.8063C5.84008 21.2567 8.33716 23.0741 11.2759 23.8977C10.7069 27.3743 10.7555 30.9137 11.4197 34.3757C10.3649 32.4288 8.72656 30.8051 6.70111 29.6992C4.67567 28.5932 2.34902 28.0519 0 28.1401C0.132696 31.139 1.54339 33.9668 3.92276 36.0033C6.30212 38.0399 9.45594 39.119 12.6927 39.004C13.4829 41.1715 14.5174 43.2559 15.7788 45.2226C13.885 44.1235 11.7025 43.5261 9.4681 43.4952C7.23374 43.4643 5.03293 44.0012 3.10458 45.0475C4.6671 47.5141 7.17796 49.3425 10.1339 50.166C13.0899 50.9896 16.2726 50.7474 19.044 49.4882C20.9085 51.5781 23.0472 53.4442 25.4104 55.0434C22.8658 54.4846 20.195 54.6958 17.7894 55.6461C15.3839 56.5965 13.3702 58.236 12.0436 60.3243C14.7349 61.79 17.9293 62.2463 20.972 61.5995C24.0146 60.9528 26.6751 59.2521 28.4079 56.8461C30.3048 57.8747 32.3019 58.7356 34.3729 59.4175C34.751 59.5261 35.1598 59.4946 35.5135 59.3298C35.8671 59.165 36.1381 58.8796 36.2695 58.5335C36.4009 58.1875 36.3825 57.8078 36.2182 57.474C36.0539 57.1403 35.7564 56.8786 35.3882 56.7438H35.3949Z" fill="url(#paint0_linear_23_35)"/>
</g>
<defs>
<linearGradient id="paint0_linear_23_35" x1="-5.9315e-07" y1="30.2438" x2="90.4667" y2="30.2438" gradientUnits="userSpaceOnUse">
<stop stop-color="#0F8F62"/>
<stop offset="1" stop-color="#28AF7B"/>
</linearGradient>
<clipPath id="clip0_23_35">
<rect width="92" height="62" fill="white"/>
</clipPath>
</defs>
</svg>
